<svg width="30" height="18" viewBox="0 0 30 18" fill="none" xmlns="http://www.w3.org/2000/svg">
<path d="M5.0127 8.99609V8.71582C5.0127 8.32389 5.13574 8.00033 5.38184 7.74512C5.63249 7.48991 5.97201 7.3623 6.40039 7.3623C6.83333 7.3623 7.17513 7.48991 7.42578 7.74512C7.67643 8.00033 7.80176 8.32389 7.80176 8.71582V8.99609C7.80176 9.38346 7.67643 9.70475 7.42578 9.95996C7.17969 10.2106 6.84017 10.3359 6.40723 10.3359C5.97884 10.3359 5.63932 10.2106 5.38867 9.95996C5.13802 9.70475 5.0127 9.38346 5.0127 8.99609ZM14.6924 9.2627L13.6807 9.00293L14.1797 4.04688H19.2861V5.21582H15.2529L14.9521 7.92285C15.1344 7.81803 15.3646 7.72005 15.6426 7.62891C15.9251 7.53776 16.2487 7.49219 16.6133 7.49219C17.0736 7.49219 17.486 7.57194 17.8506 7.73145C18.2152 7.88639 18.5251 8.1097 18.7803 8.40137C19.04 8.69303 19.2383 9.04395 19.375 9.4541C19.5117 9.86426 19.5801 10.3223 19.5801 10.8281C19.5801 11.3066 19.514 11.7464 19.3818 12.1475C19.2542 12.5485 19.0605 12.8994 18.8008 13.2002C18.541 13.4964 18.2129 13.7266 17.8164 13.8906C17.4245 14.0547 16.9619 14.1367 16.4287 14.1367C16.0277 14.1367 15.6471 14.082 15.2871 13.9727C14.9316 13.8587 14.6126 13.6878 14.3301 13.46C14.0521 13.2275 13.8242 12.9404 13.6465 12.5986C13.4733 12.2523 13.3639 11.8467 13.3184 11.3818H14.5215C14.5762 11.7555 14.6855 12.07 14.8496 12.3252C15.0137 12.5804 15.2279 12.7741 15.4922 12.9062C15.7611 13.0339 16.0732 13.0977 16.4287 13.0977C16.7295 13.0977 16.9961 13.0452 17.2285 12.9404C17.4609 12.8356 17.6569 12.6852 17.8164 12.4893C17.9759 12.2933 18.0967 12.0563 18.1787 11.7783C18.2653 11.5003 18.3086 11.1882 18.3086 10.8418C18.3086 10.5273 18.2653 10.2357 18.1787 9.9668C18.0921 9.69792 17.9622 9.46322 17.7891 9.2627C17.6204 9.06217 17.4131 8.90723 17.167 8.79785C16.9209 8.68392 16.6383 8.62695 16.3193 8.62695C15.8955 8.62695 15.5742 8.68392 15.3555 8.79785C15.1413 8.91178 14.9202 9.06673 14.6924 9.2627ZM22.3691 3.5V14H21.1045V3.5H22.3691ZM22.0684 10.0215L21.542 10.001C21.5465 9.49512 21.6217 9.02799 21.7676 8.59961C21.9134 8.16667 22.1185 7.79069 22.3828 7.47168C22.6471 7.15267 22.9616 6.90658 23.3262 6.7334C23.6953 6.55566 24.1032 6.4668 24.5498 6.4668C24.9144 6.4668 25.2425 6.51693 25.5342 6.61719C25.8258 6.71289 26.0742 6.86784 26.2793 7.08203C26.4889 7.29622 26.6484 7.57422 26.7578 7.91602C26.8672 8.25326 26.9219 8.66569 26.9219 9.15332V14H25.6504V9.13965C25.6504 8.75228 25.5934 8.44238 25.4795 8.20996C25.3656 7.97298 25.1992 7.80208 24.9805 7.69727C24.7617 7.58789 24.4928 7.5332 24.1738 7.5332C23.8594 7.5332 23.5723 7.59928 23.3125 7.73145C23.0573 7.86361 22.8363 8.0459 22.6494 8.27832C22.4671 8.51074 22.3236 8.77734 22.2188 9.07812C22.1185 9.37435 22.0684 9.6888 22.0684 10.0215Z" fill="#8E8E8E"/>
</svg>
